<?xml version="1.0" encoding="utf-8"?>
<!-- Generator: Adobe Illustrator 27.0.0, SVG Export Plug-In . SVG Version: 6.00 Build 0)  -->
<svg version="1.1" id="图层_1" xmlns="http://www.w3.org/2000/svg" xmlns:xlink="http://www.w3.org/1999/xlink" x="0px" y="0px"
	 viewBox="0 0 800 800" style="enable-background:new 0 0 800 800;" xml:space="preserve">
<style type="text/css">
	.st0{fill:#C4181F;}
</style>
<g>
	<g>
		<path class="st0" d="M402,748.7c-190.9,0-346.2-155.3-346.2-346.2C55.8,211.6,211.1,56.3,402,56.3
			c190.9,0,346.2,155.3,346.2,346.2S592.9,748.7,402,748.7z M402,79.2c-178.3,0-323.3,145.1-323.3,323.3S223.7,725.8,402,725.8
			s323.3-145.1,323.3-323.3S580.3,79.2,402,79.2z"/>
	</g>
	<g>
		<path class="st0" d="M140.4,349c-1.2,0-2.3-0.3-3.5-0.8c-4.1-1.9-5.9-6.7-4-10.8c26.2-56.5-0.2-128.3-0.4-129.1
			c-1.6-4.2,0.5-8.9,4.8-10.5c4.2-1.6,8.9,0.5,10.5,4.8c1.2,3.2,29,79.1,0,141.6C146.4,347.2,143.5,349,140.4,349z"/>
	</g>
	<g>
		<path class="st0" d="M225.7,337.4c-3.3,0-6.4-2-7.6-5.3c-1.2-3.2-29-79.1,0-141.6c1.9-4.1,6.7-5.9,10.8-4c4.1,1.9,5.9,6.7,4,10.8
			c-26.1,56.3,0.2,128.4,0.4,129.1c1.6,4.2-0.5,8.9-4.8,10.5C227.6,337.2,226.6,337.4,225.7,337.4z"/>
	</g>
	<g>
		<path class="st0" d="M146.4,446.6c-1.5,0-3-0.4-4.3-1.2c-3.8-2.4-4.9-7.5-2.5-11.3c53-83.5,32.7-266.8,32.5-268.6
			c-0.5-4.4,2.7-8.5,7.2-9.1c4.3-0.4,8.5,2.7,9.1,7.2c0.9,7.7,21.2,190.8-34.9,279.3C151.8,445.3,149.2,446.6,146.4,446.6z"/>
	</g>
	<g>
		<path class="st0" d="M239.2,439.4c-1.4,0-2.8-0.4-4.1-1.1c-43.4-25.3-62.2-110.9-63-114.5c-1-4.4,1.9-8.7,6.2-9.7
			c4.3-0.9,8.7,1.9,9.7,6.2c0.2,0.8,18.1,82.2,55.3,103.9c3.9,2.2,5.2,7.3,2.9,11.2C244.8,438,242,439.4,239.2,439.4z"/>
	</g>
	<g>
		<path class="st0" d="M291.8,244.8c-31.6,0-49.6-48.3-51.7-54c-1.5-4.3,0.7-8.9,5-10.4c4.3-1.5,8.9,0.7,10.4,5
			c4.2,11.7,20.2,44.9,37.7,43.1c12.7-1.2,25-31.6,29.4-51.8c1-4.4,5.2-7.3,9.7-6.3c4.4,1,7.2,5.2,6.2,9.7
			c-1.3,6.3-14,61.7-43.8,64.5C293.8,244.8,292.8,244.8,291.8,244.8z"/>
	</g>
	<g>
		<path class="st0" d="M406.3,592.7c-18.6,0-34.4-6.9-47.3-20.6c-43.1-45.8-36.8-153.4-36.5-157.9c-2.2-63.1-14.7-123.6-25.7-123.6
			c-11.8,0-27.7,59.5-33.3,124.7c-0.4,4.4-4.3,7.7-8.8,7.5c-4.5-0.4-7.8-4.3-7.5-8.8c10.7-126.1,38.2-139.6,49.4-139.6
			c33.6,0,40.5,97.9,42,140.1c-0.1,1.9-6,105.9,32.1,146.6c9.8,10.4,21.4,15.4,35.4,15.4c14.5,0,26.3-5.2,36.2-15.9
			c38.9-41.9,31.2-149.6,31.2-150.6c-0.4-4.5,3-8.4,7.5-8.7c4.7-0.4,8.4,3,8.8,7.5c0.4,4.7,8.3,115.8-35.4,163
			C441.4,585.6,425.3,592.7,406.3,592.7z"/>
	</g>
	<g>
		<path class="st0" d="M295.7,446.6c-0.1,0-0.1,0-0.2,0c-4.5-0.1-8.1-3.8-8-8.3c2-100.1,2.3-265.2-5.7-282.1c-2.8-5.9-6-9-9.6-9.3
			c-10.1-0.8-25,14.7-30.8,22.5c-2.7,3.6-7.8,4.3-11.4,1.7c-3.6-2.7-4.3-7.8-1.7-11.4c2.4-3.2,23.4-31.2,45.5-29
			c6.7,0.6,16,4.4,22.7,18.6c12,25.3,8.1,245.5,7.2,289.4C303.7,443.1,300.1,446.6,295.7,446.6z"/>
	</g>
	<g>
		<path class="st0" d="M458,275.6c-4.4,0-8.1-3.6-8.2-8.1c0-4.5,3.6-8.2,8.1-8.2l162.2-1.2c0,0,0,0,0.1,0c4.4,0,8.1,3.6,8.2,8.1
			c0,4.5-3.6,8.2-8.1,8.2L458,275.6C458.1,275.6,458,275.6,458,275.6z"/>
	</g>
	<g>
		<path class="st0" d="M535.6,439.1c-0.2,0-0.4,0-0.4,0c-22.7-0.1-41.4-7.9-55.6-23.2c-33.9-36.6-29.5-103.1-29.3-105.9
			c0.4-4.5,4.6-7.9,8.7-7.5c4.5,0.4,7.9,4.3,7.5,8.7c0,0.6-4.1,62.3,25,93.7c11.1,12,25.4,17.8,43.6,17.9c23.1,0.4,42-7.2,54.8-21.7
			c28.2-32,21.4-88.9,21.3-89.6c-0.5-4.4,2.6-8.5,7-9.1c4.5-0.5,8.5,2.6,9.1,7c0.4,2.7,7.9,64.8-25.2,102.4
			C586.2,429.9,563.8,439.1,535.6,439.1z"/>
	</g>
	<g>
		<path class="st0" d="M554.2,516.4H258.8c-4.5,0-8.2-3.6-8.2-8.2c0-4.5,3.6-8.2,8.2-8.2h295.4c4.5,0,8.2,3.6,8.2,8.2
			C562.4,512.7,558.8,516.4,554.2,516.4z"/>
	</g>
	<g>
		<path class="st0" d="M474.8,648.6H338.4c-4.5,0-8.2-3.6-8.2-8.2s3.6-8.2,8.2-8.2h136.4c4.5,0,8.2,3.6,8.2,8.2
			S479.2,648.6,474.8,648.6z"/>
	</g>
	<g>
		<path class="st0" d="M570.6,700.1H241.9c-4.5,0-8.2-3.6-8.2-8.2s3.6-8.2,8.2-8.2h328.7c4.5,0,8.2,3.6,8.2,8.2
			S575.1,700.1,570.6,700.1z"/>
	</g>
	<g>
		<path class="st0" d="M406.5,700.1c-4.5,0-8.2-3.6-8.2-8.2V382.6c0-4.5,3.6-8.2,8.2-8.2c4.5,0,8.2,3.6,8.2,8.2V692
			C414.7,696.5,411.1,700.1,406.5,700.1z"/>
	</g>
	<g>
		<path class="st0" d="M609.6,349h-141c-4.5,0-8.2-3.6-8.2-8.2c0-4.5,3.6-8.2,8.2-8.2h141c4.5,0,8.2,3.6,8.2,8.2
			C617.8,345.3,614.1,349,609.6,349z"/>
	</g>
	<g>
		<path class="st0" d="M638.8,186.6H439.5c-4.5,0-8.2-3.6-8.2-8.2s3.6-8.2,8.2-8.2h199.3c4.5,0,8.2,3.6,8.2,8.2
			S643.3,186.6,638.8,186.6z"/>
	</g>
	<g>
		<path class="st0" d="M539.2,271.3c-4.5,0-8.2-3.6-8.2-8.2V100.2c0-4.5,3.6-8.2,8.2-8.2s8.2,3.6,8.2,8.2v162.9
			C547.2,267.7,543.6,271.3,539.2,271.3z"/>
	</g>
</g>
</svg>
